# File created by Blade
# Date/Time:  Tue Jan 27 17:09:01 2015
#---------------------------------------------------------
:version 1.10
:name HOM
:units
  mass 1.0
  length 1.000000
  angle deg
:documentation
     Acclaim Skeleton File
:root
   axis xyz
   order TX TY TZ RX RY RZ
   position 0.000000 0.000000 0.000000
   orientation 0 0 0
:bonedata
   begin
      id 1
      name Spine_dum
      direction 0.000000 1.000000 0.000000
      length 7.539951
      axis 0.0 0.0 0.0 xyz
   end
   begin
      id 2
      name LeftUpLeg_dum
      direction 1.000000 0.000000 0.000000
      length 3.345476
      axis 0.0 0.0 0.0 xyz
   end
   begin
      id 3
      name RightUpLeg_dum
      direction -1.000000 0.000000 0.000000
      length 3.345476
      axis 0.0 0.0 0.0 xyz
   end
   begin
      id 4
      name Spine
      direction 0.000000 1.000000 0.000000
      length 0.000000
      axis 0.0 0.0 0.0 xyz
      dof rx ry rz
   end
   begin
      id 5
      name Spine_dum1
      direction 0.000000 1.000000 0.000000
      length 15.093809
      axis 0.0 0.0 0.0 xyz
   end
   begin
      id 6
      name Spine_dum2
      direction 0.000000 1.000000 0.000000
      length 9.738928
      axis 0.0 0.0 0.0 xyz
   end
   begin
      id 7
      name Spine_dum3
      direction 0.000000 1.000000 0.000000
      length 9.738928
      axis 0.0 0.0 0.0 xyz
   end
   begin
      id 8
      name Head
      direction 0.000000 1.000000 0.000000
      length 4.527550
      axis 0.0 0.0 0.0 xyz
      dof rx ry rz
   end
   begin
      id 9
      name LeftShoulder
      direction 1.000000 0.000000 0.000000
      length 7.084015
      axis 0.0 0.0 -90.0 xyz
      dof rx ry rz
   end
   begin
      id 10
      name LeftArm
      direction 1.000000 0.000000 0.000000
      length 10.259319
      axis 0.0 0.0 -90.0 xyz
      dof rx ry rz
   end
   begin
      id 11
      name LeftForeArm
      direction 1.000000 0.000000 0.000000
      length 9.896984
      axis 0.0 0.0 -90.0 xyz
      dof ry rz rx
   end
   begin
      id 12
      name LeftHand
      direction 0.000000 0.000000 0.000000
      length 0.000000
      axis 0.0 0.0 -90.0 xyz
      dof rx ry rz
   end
   begin
      id 13
      name LeftHand_dum1
      direction 0.000000 0.000000 0.000000
      length 0.000000
      axis 0.0 0.0 -90.0 xyz
   end
   begin
      id 14
      name LeftHand_dum2
      direction 1.000000 0.000000 0.000000
      length 3.937000
      axis 0.0 0.0 -90.0 xyz
   end
   begin
      id 15
      name LeftHandThumb1
      direction 0.000000 0.000000 1.000000
      length 3.937000
      axis 0.0 0.0 -90.0 xyz
      dof rx rz ry
   end
   begin
      id 16
      name RightShoulder
      direction -1.000000 0.000000 0.000000
      length 7.084015
      axis 0.0 0.0 90.0 xyz
      dof rx ry rz
   end
   begin
      id 17
      name RightArm
      direction -1.000000 0.000000 0.000000
      length 10.259319
      axis 0.0 0.0 90.0 xyz
      dof rx ry rz
   end
   begin
      id 18
      name RightForeArm
      direction -1.000000 0.000000 0.000000
      length 9.896984
      axis 0.0 0.0 90.0 xyz
      dof ry rz rx
   end
   begin
      id 19
      name RightHand
      direction 0.000000 0.000000 0.000000
      length 0.000000
      axis 0.0 0.0 90.0 xyz
      dof rx ry rz
   end
   begin
      id 20
      name RightHand_dum1
      direction 0.000000 0.000000 0.000000
      length 0.000000
      axis 0.0 0.0 90.0 xyz
   end
   begin
      id 21
      name RightHand_dum2
      direction -1.000000 0.000000 0.000000
      length 3.937000
      axis 0.0 0.0 90.0 xyz
   end
   begin
      id 22
      name RightHandThumb1
      direction 0.000000 0.000000 1.000000
      length 3.937000
      axis 0.0 0.0 90.0 xyz
      dof rx rz ry
   end
   begin
      id 23
      name LeftUpLeg
      direction 0.000000 -1.000000 0.000000
      length 19.114733
      axis 0.0 0.0 0.0 xyz
      dof rx ry rz
   end
   begin
      id 24
      name LeftLeg
      direction 0.000000 -1.000000 0.000000
      length 16.045604
      axis 0.0 0.0 0.0 xyz
      dof rx ry rz
   end
   begin
      id 25
      name LeftFoot
      direction 0.000000 -0.258819 0.965926
      length 5.543155
      axis 15.0 0.0 0.0 xyz
      dof rx ry rz
   end
   begin
      id 26
      name LeftToeBase
      direction 0.000000 0.000000 1.000000
      length 2.952750
      axis 0.0 0.0 0.0 xyz
      dof rx ry rz
   end
   begin
      id 27
      name RightUpLeg
      direction 0.000000 -1.000000 0.000000
      length 19.114733
      axis 0.0 0.0 0.0 xyz
      dof rx ry rz
   end
   begin
      id 28
      name RightLeg
      direction 0.000000 -1.000000 0.000000
      length 16.045604
      axis 0.0 0.0 0.0 xyz
      dof rx ry rz
   end
   begin
      id 29
      name RightFoot
      direction 0.000000 -0.258819 0.965926
      length 5.543155
      axis 15.0 0.0 0.0 xyz
      dof rx ry rz
   end
   begin
      id 30
      name RightToeBase
      direction 0.000000 0.000000 1.000000
      length 2.952750
      axis 0.0 0.0 0.0 xyz
      dof rx ry rz
   end
:hierarchy
   begin
      root Spine_dum LeftUpLeg_dum RightUpLeg_dum
      Spine_dum Spine
      LeftUpLeg_dum LeftUpLeg
      RightUpLeg_dum RightUpLeg
      Spine Spine_dum1 Spine_dum2 Spine_dum3
      Spine_dum1 Head
      Spine_dum2 LeftShoulder
      Spine_dum3 RightShoulder
      LeftShoulder LeftArm
      LeftArm LeftForeArm
      LeftForeArm LeftHand
      LeftHand LeftHand_dum1 LeftHand_dum2
      LeftHand_dum1 LeftHandThumb1
      RightShoulder RightArm
      RightArm RightForeArm
      RightForeArm RightHand
      RightHand RightHand_dum1 RightHand_dum2
      RightHand_dum1 RightHandThumb1
      LeftUpLeg LeftLeg
      LeftLeg LeftFoot
      LeftFoot LeftToeBase
      RightUpLeg RightLeg
      RightLeg RightFoot
      RightFoot RightToeBase
   end

# File created by Blade
# Date/Time:  Tue Jan 27 17:08:52 2015
# Frame Rate: 120.000 fps
#------------------------------------------------------
:FULLY-SPECIFIED
:DEGREES
1350
root 4.625574 36.895382 -2.781710 -11.599850 11.799281 -15.296139
Spine 17.554888 1.231354 22.063829
Head -1.162711 -9.888281 -2.122790
LeftShoulder -1.866793 -7.426188 3.196415
LeftArm -3.265835 -9.678981 -55.155127
LeftForeArm 10.771021 -0.000000 119.781834
LeftHand -14.524596 -0.000000 31.211926
LeftHandThumb1 -26.253704 0.000000 33.147579
RightShoulder 0.646714 -19.026803 -1.076019
RightArm 14.046674 4.258680 58.610309
RightForeArm 231.466167 0.000000 52.466379
RightHand 3.789409 -0.000000 -17.240476
RightHandThumb1 -24.326973 -0.000000 -32.862282
LeftUpLeg -4.355655 9.833767 10.687688
LeftLeg 30.025738 -0.000000 -0.000000
LeftFoot -26.190858 10.246396 -4.890596
LeftToeBase 12.136575 -0.000000 -0.000000
RightUpLeg -81.322181 -18.016068 13.138394
RightLeg 30.313852 -0.000000 -0.000000
RightFoot -7.587678 -1.720247 9.545654
RightToeBase 0.397259 -0.000000 -0.000000
1351
root 4.615019 36.890911 -2.778498 -11.916928 12.030704 -15.415276
Spine 17.960921 0.929474 22.272684
Head -1.067284 -10.098382 -2.345974
LeftShoulder -1.840714 -7.514341 3.258269
LeftArm -3.173215 -9.673856 -55.115850
LeftForeArm 10.573603 -0.000000 119.690858
LeftHand -14.481057 -0.000000 31.355604
LeftHandThumb1 -26.253704 0.000000 33.147579
RightShoulder 0.667160 -18.933187 -1.169644
RightArm 14.038083 4.322918 58.752927
RightForeArm 232.131027 0.000000 52.726556
RightHand 3.735276 -0.000000 -17.177632
RightHandThumb1 -24.326973 -0.000000 -32.862282
LeftUpLeg -4.229143 9.619089 10.814155
LeftLeg 30.222194 -0.000000 -0.000000
LeftFoot -26.229015 10.225779 -4.834784
LeftToeBase 12.124434 -0.000000 -0.000000
RightUpLeg -81.335350 -18.243905 12.946012
RightLeg 29.332871 -0.000000 -0.000000
RightFoot -8.456832 -2.246330 9.320456
RightToeBase -0.310550 -0.000000 0.000000
1352
root 4.607353 36.886963 -2.772562 -12.240887 12.209547 -15.535773
Spine 18.357028 0.672968 22.497943
Head -0.856102 -10.187944 -2.360224
LeftShoulder -1.779439 -7.607269 3.308262
LeftArm -3.134950 -9.680051 -55.090228
LeftForeArm 10.358576 -0.000000 119.623358
LeftHand -14.404645 -0.000000 31.440847
LeftHandThumb1 -26.253704 0.000000 33.147579
RightShoulder 0.740620 -18.873439 -1.277823
RightArm 13.949289 4.454604 58.855965
RightForeArm 232.353631 -0.000000 53.060608
RightHand 3.499466 -0.000000 -17.190512
RightHandThumb1 -24.326973 -0.000000 -32.862282
LeftUpLeg -4.081747 9.438248 10.947995
LeftLeg 30.428893 -0.000000 -0.000000
LeftFoot -26.276807 10.245926 -4.759151
LeftToeBase 12.117072 -0.000000 -0.000000
RightUpLeg -81.448892 -18.484581 12.915912
RightLeg 28.816943 -0.000000 -0.000000
RightFoot -9.094569 -2.531462 9.343957
RightToeBase 0.044864 -0.000000 -0.000000
1353
root 4.592918 36.883185 -2.772003 -12.542349 12.383848 -15.709958
Spine 18.716605 0.420834 22.790663
Head -0.656453 -10.244380 -2.480504
LeftShoulder -1.681981 -7.740246 3.267798
LeftArm -3.140370 -9.703008 -54.933821
LeftForeArm 10.148645 -0.000000 119.588191
LeftHand -14.397895 -0.000000 31.528397
LeftHandThumb1 -26.253704 0.000000 33.147579
RightShoulder 0.799540 -18.830222 -1.397606
RightArm 13.887528 4.585937 58.938407
RightForeArm 232.621085 -0.000000 53.497801
RightHand 3.303300 -0.000000 -17.116427
RightHandThumb1 -24.326973 -0.000000 -32.862282
LeftUpLeg -4.010510 9.255498 11.135299
LeftLeg 30.695945 -0.000000 -0.000000
LeftFoot -26.324456 10.246118 -4.689294
LeftToeBase 12.127350 -0.000000 -0.000000
RightUpLeg -81.652726 -18.726807 13.019926
RightLeg 28.615709 -0.000000 -0.000000
RightFoot -9.310156 -2.665718 9.375926
RightToeBase -0.164126 -0.000000 0.000000
1354
root 4.580608 36.877730 -2.769888 -12.833004 12.534750 -15.861037
Spine 19.065931 0.215983 23.073819
Head -0.484764 -10.446252 -2.649927
LeftShoulder -1.641069 -7.789580 3.252830
LeftArm -2.999384 -9.714834 -54.881368
LeftForeArm 9.981986 -0.000000 119.490958
LeftHand -14.307114 0.000000 31.602693
LeftHandThumb1 -26.253704 0.000000 33.147579
RightShoulder 0.838666 -18.787547 -1.525447
RightArm 13.788002 4.793196 59.048906
RightForeArm 232.492763 -0.000000 53.985585
RightHand 3.070507 -0.000000 -17.034563
RightHandThumb1 -24.326973 -0.000000 -32.862282
LeftUpLeg -3.923927 9.076674 11.299933
LeftLeg 30.939763 -0.000000 -0.000000
LeftFoot -26.385878 10.252116 -4.650530
LeftToeBase 12.079224 -0.000000 -0.000000
RightUpLeg -81.919047 -18.971636 13.223288
RightLeg 28.664394 -0.000000 -0.000000
RightFoot -9.210586 -2.701647 9.336129
RightToeBase -0.171961 -0.000000 0.000000
1355
root 4.569548 36.875919 -2.764791 -13.124568 12.600423 -16.068378
Spine 19.413379 0.083355 23.466703
Head -0.341750 -10.695601 -2.923671
LeftShoulder -1.581745 -7.892642 3.178914
LeftArm -2.927923 -9.693473 -54.816977
LeftForeArm 9.825393 -0.000000 119.434319
LeftHand -14.277590 -0.000000 31.716665
LeftHandThumb1 -26.253704 0.000000 33.147579
RightShoulder 0.834089 -18.714636 -1.679968
RightArm 13.657045 4.954129 59.123620
RightForeArm 232.539799 -0.000000 54.520665
RightHand 2.994177 -0.000000 -16.968465
RightHandThumb1 -24.326973 -0.000000 -32.862282
LeftUpLeg -3.812699 8.948611 11.532853
LeftLeg 31.161770 -0.000000 -0.000000
LeftFoot -26.462938 10.286387 -4.602479
LeftToeBase 12.099599 -0.000000 -0.000000
RightUpLeg -82.097416 -19.123475 13.385940
RightLeg 28.824996 -0.000000 -0.000000
RightFoot -9.157295 -2.514068 9.592149
RightToeBase -0.022189 -0.000000 0.000000
1356
root 4.559126 36.874924 -2.759999 -13.374658 12.601439 -16.247334
Spine 19.706870 -0.013447 23.803834
Head -0.085820 -10.772943 -3.055449
LeftShoulder -1.571926 -7.945136 3.136513
LeftArm -2.840730 -9.677252 -54.803658
LeftForeArm 9.717791 -0.000000 119.377498
LeftHand -14.269142 -0.000000 31.743781
LeftHandThumb1 -26.253704 0.000000 33.147579
RightShoulder 0.882126 -18.717813 -1.802143
RightArm 13.574154 5.131778 59.113386
RightForeArm 232.361847 -0.000000 54.987284
RightHand 2.840482 -0.000000 -17.106402
RightHandThumb1 -24.326973 -0.000000 -32.862282
LeftUpLeg -3.711095 8.870072 11.742988
LeftLeg 31.367342 -0.000000 -0.000000
LeftFoot -26.523952 10.364548 -4.544056
LeftToeBase 12.082792 -0.000000 -0.000000
RightUpLeg -82.254060 -19.202998 13.563763
RightLeg 29.004012 -0.000000 -0.000000
RightFoot -8.823657 -2.289305 9.511417
RightToeBase -0.472565 -0.000000 0.000000
1357
root 4.550454 36.875198 -2.753876 -13.605166 12.581215 -16.416561
Spine 19.961485 -0.083864 24.140536
Head 0.167578 -10.921145 -3.167001
LeftShoulder -1.544396 -7.977904 3.050365
LeftArm -2.775014 -9.673852 -54.752971
LeftForeArm 9.638634 -0.000000 119.341640
LeftHand -14.257185 -0.000000 31.782780
LeftHandThumb1 -26.253704 0.000000 33.147579
RightShoulder 0.917359 -18.700646 -1.920656
RightArm 13.475363 5.292302 59.092385
RightForeArm 232.375654 -0.000000 55.483563
RightHand 2.782605 -0.000000 -16.943875
RightHandThumb1 -24.326973 -0.000000 -32.862282
LeftUpLeg -3.596651 8.753734 11.937577
LeftLeg 31.529612 -0.000000 -0.000000
LeftFoot -26.582591 10.455360 -4.551466
LeftToeBase 12.053386 -0.000000 -0.000000
RightUpLeg -82.343693 -19.256101 13.757182
RightLeg 29.140318 -0.000000 -0.000000
RightFoot -8.726014 -1.953046 9.471580
RightToeBase -0.082674 -0.000000 0.000000
1358
root 4.541270 36.877247 -2.748122 -13.790118 12.510430 -16.547836
Spine 20.179909 -0.081104 24.399599
Head 0.516976 -10.913173 -3.182335
LeftShoulder -1.526377 -8.014460 2.994644
LeftArm -2.736710 -9.651194 -54.727617
LeftForeArm 9.586915 -0.000000 119.331791
LeftHand -14.244163 0.000000 31.821636
LeftHandThumb1 -26.253704 0.000000 33.147579
RightShoulder 0.935434 -18.671032 -1.967233
RightArm 13.365243 5.426763 58.985727
RightForeArm 232.108059 -0.000000 55.922526
RightHand 2.640601 -0.000000 -16.853918
RightHandThumb1 -24.326973 -0.000000 -32.862282
LeftUpLeg -3.469401 8.675568 12.101618
LeftLeg 31.616243 -0.000000 -0.000000
LeftFoot -26.641513 10.552265 -4.589633
LeftToeBase 12.100483 -0.000000 -0.000000
RightUpLeg -82.339399 -19.215894 13.830711
RightLeg 29.206047 -0.000000 -0.000000
RightFoot -8.679719 -1.536747 9.220100
RightToeBase -0.405392 -0.000000 0.000000
1359
root 4.534838 36.879439 -2.742466 -13.945682 12.420743 -16.656459
Spine 20.354128 -0.068726 24.623823
Head 0.858086 -11.013128 -3.242518
LeftShoulder -1.516002 -8.059830 2.937700
LeftArm -2.736965 -9.622091 -54.710729
LeftForeArm 9.527167 -0.000000 119.353807
LeftHand -14.300367 -0.000000 32.035381
LeftHandThumb1 -26.253704 0.000000 33.147579
RightShoulder 0.952925 -18.637369 -2.032962
RightArm 13.272228 5.543040 58.893312
RightForeArm 231.789298 -0.000000 56.289977
RightHand 2.544180 0.000000 -16.770978
RightHandThumb1 -24.326973 -0.000000 -32.862282
LeftUpLeg -3.350514 8.574437 12.233028
LeftLeg 31.693860 -0.000000 -0.000000
LeftFoot -26.691507 10.681148 -4.650511
LeftToeBase 12.089340 -0.000000 -0.000000
RightUpLeg -82.257135 -19.123173 13.821036
RightLeg 29.221663 -0.000000 -0.000000
RightFoot -8.789978 -1.145209 9.010324
RightToeBase -0.584596 -0.000000 0.000000
1360
root 4.529173 36.881698 -2.735194 -14.056881 12.316794 -16.741322
Spine 20.458601 -0.039261 24.802661
Head 1.166718 -11.108078 -3.131415
LeftShoulder -1.555813 -8.011128 2.877609
LeftArm -2.670974 -9.602905 -54.697560
LeftForeArm 9.557566 -0.000000 119.362930
LeftHand -14.369326 -0.000000 32.000313
LeftHandThumb1 -26.253704 0.000000 33.147579
RightShoulder 0.979063 -18.622324 -2.088626
RightArm 13.192689 5.630930 58.789651
RightForeArm 231.299329 -0.000000 56.608790
RightHand 2.478544 -0.000000 -16.620054
RightHandThumb1 -24.326973 -0.000000 -32.862282
LeftUpLeg -3.239697 8.501567 12.340924
LeftLeg 31.723353 -0.000000 -0.000000
LeftFoot -26.743688 10.812149 -4.703671
LeftToeBase 12.125101 -0.000000 -0.000000
RightUpLeg -82.141038 -18.991726 13.791329
RightLeg 29.197234 -0.000000 -0.000000
RightFoot -9.028586 -0.789769 8.802439
RightToeBase -0.911871 -0.000000 0.000000
